<svg width="80" height="61" fill="none" xmlns="http://www.w3.org/2000/svg"><path d="M38.176 22.059a4 4 0 013.648 0L70.862 36.94c2.9 1.487 2.9 5.633 0 7.12L41.824 58.94a4 4 0 01-3.648 0L9.138 44.06c-2.9-1.487-2.9-5.633 0-7.12l29.038-14.88z" stroke="#5528FF" stroke-width="2"/><path d="M38.176 12.059a4 4 0 013.648 0L70.862 26.94c2.9 1.487 2.9 5.633 0 7.12L41.824 48.94a4 4 0 01-3.648 0L9.138 34.06c-2.9-1.487-2.9-5.633 0-7.12l29.038-14.88z" fill="#fff" stroke="#5528FF" stroke-width="2"/><path d="M38.176 2.059a4 4 0 013.648 0L70.862 16.94c2.9 1.487 2.9 5.633 0 7.12L41.824 38.94a4 4 0 01-3.648 0L9.138 24.06c-2.9-1.487-2.9-5.633 0-7.12L38.176 2.06z" fill="#fff" stroke="#5528FF" stroke-width="2"/></svg>