<svg width="21" height="21" fill="none" xmlns="http://www.w3.org/2000/svg"><path d="M4.688 21H.327V6.984h4.36V21zM2.53 5.062c-.687 0-1.281-.25-1.781-.75S0 3.22 0 2.532C0 1.843.25 1.25.75.75S1.844 0 2.531 0c.438 0 .844.11 1.219.328.406.219.719.531.938.938.25.375.375.796.375 1.265 0 .438-.125.86-.375 1.266a2.691 2.691 0 01-.938.937 2.377 2.377 0 01-1.219.329zM21 21h-4.36v-6.844a13.4 13.4 0 00-.046-1.265 5.574 5.574 0 00-.235-1.125c-.125-.438-.359-.766-.703-.985-.312-.219-.734-.328-1.265-.328-1.032 0-1.735.328-2.11.985-.344.656-.515 1.53-.515 2.624V21h-4.36V6.984h4.219v1.922h.047c.312-.625.828-1.156 1.547-1.594.719-.468 1.578-.703 2.578-.703 1.062 0 1.937.172 2.625.516.719.313 1.25.797 1.594 1.453.375.625.625 1.313.75 2.063.156.75.234 1.64.234 2.671V21z" fill="#B2B2B2"/></svg>