<svg width="27" height="18" fill="none" xmlns="http://www.w3.org/2000/svg"><path d="M10.875 8.11c2.031.562 3.047 1.968 3.047 4.218 0 1.594-.563 2.797-1.688 3.61-1.125.812-2.515 1.218-4.171 1.218H0V.516h7.828c3.531 0 5.297 1.375 5.297 4.125 0 1.593-.75 2.75-2.25 3.468zM3.656 3.374v3.89H7.36c1.47 0 2.204-.671 2.204-2.015 0-1.25-.829-1.875-2.485-1.875H3.656zm3.89 10.969c1.813 0 2.72-.735 2.72-2.203 0-1.594-.875-2.391-2.625-2.391H3.656v4.594h3.89zm16.83-11.296h-6.75v-1.64h6.75v1.64zM27 11.297c0 .156-.016.36-.047.61h-8.672c0 1 .25 1.765.75 2.296.532.531 1.266.797 2.203.797a3 3 0 001.032-.188 3.24 3.24 0 00.984-.515c.313-.25.516-.547.61-.89h2.906c-.875 2.687-2.75 4.03-5.625 4.03-1.875 0-3.375-.578-4.5-1.734C15.547 14.547 15 13.031 15 11.156c0-1.844.563-3.36 1.688-4.547 1.156-1.218 2.64-1.828 4.453-1.828 1.812 0 3.234.625 4.265 1.875C26.47 7.906 27 9.453 27 11.296zm-8.719-1.453h5.39c-.155-1.719-1.03-2.578-2.624-2.578-.781 0-1.422.234-1.922.703-.5.468-.781 1.093-.844 1.875z" fill="#B2B2B2"/></svg>