<svg width="93" height="53" fill="none" xmlns="http://www.w3.org/2000/svg"><path fill-rule="evenodd" clip-rule="evenodd" d="M7.727 20.773H0v31.374h8.362s0-16.378-.212-17.548c0 0 4.505 7.002 12.227 17.54h7.052V20.793h-8.302s.134 15.024.223 16.504c0 0-2.232-4.216-11.623-16.523z" fill="#B2B2B2"/><path opacity=".6" fill-rule="evenodd" clip-rule="evenodd" d="M48.168 8.312c-4.453 0-8.063 3.627-8.063 8.102 0 4.475 3.61 8.102 8.063 8.102 4.454 0 8.064-3.627 8.064-8.102 0-4.475-3.61-8.102-8.064-8.102zm16.455 8.132c0 9.082-7.327 16.444-16.365 16.444-9.039 0-16.366-7.362-16.366-16.444C31.892 7.362 39.219 0 48.258 0c9.038 0 16.365 7.362 16.365 16.444z" fill="#B2B2B2"/><path fill-rule="evenodd" clip-rule="evenodd" d="M92.534 3.947l-4.225 6.876s-3.57-2.99-8.63-2.99c-3.57 0-3.243 1.645-3.243 1.884 0 .24-.312 1.57 5.862 2.9 6.142 1.323 10.653 3.558 10.593 10.165-.058 6.458-4.94 9.927-12.973 9.927-8.034 0-12.974-3.887-12.974-3.887l4.107-6.757s4.166 3.033 9.402 3.11c4.107.06 3.868-1.795 3.868-1.795 0-1.554-1.904-2.452-7.557-3.647-5.654-1.196-9.046-4.126-9.046-8.97 0-5.172 3.11-10.492 12.334-10.509 7.974-.015 12.482 3.693 12.482 3.693z" fill="#B2B2B2"/></svg>