<svg width="24" height="24" fill="none" xmlns="http://www.w3.org/2000/svg"><path d="M23.531 7.5c.313.188.469.469.469.844v7.312c0 .375-.156.656-.469.844l-10.968 7.313c-.376.25-.75.25-1.126 0L.47 16.5c-.314-.188-.47-.469-.47-.844V8.344c0-.375.156-.656.469-.844L11.438.187c.374-.25.75-.25 1.124 0L23.532 7.5zm-10.5-4.547v4.828l4.453 2.953 3.61-2.39-8.063-5.39zm-2.062 0l-8.063 5.39 3.61 2.391 4.453-2.953V2.953zm-8.906 7.313v3.468L4.64 12l-2.579-1.734zm8.906 10.78V16.22l-4.453-2.953-3.61 2.39 8.063 5.39zM12 14.439L15.656 12 12 9.562 8.344 12 12 14.438zm1.031 6.609l8.063-5.39-3.61-2.391-4.453 2.953v4.828zm8.906-7.313v-3.468L19.36 12l2.578 1.734z" fill="#B2B2B2"/></svg>