<svg width="177" height="39" fill="none" xmlns="http://www.w3.org/2000/svg"><path fill-rule="evenodd" clip-rule="evenodd" d="M54.266 27.796v-15.73h10.098v2.794H57.83v4.158H63v2.684h-5.17v6.094h-3.564zm12.276 0v-16.72h3.168v16.72h-3.168zm6.16 0V16.29h3.168v11.506h-3.168zm1.562-13.068c-.513 0-.942-.165-1.287-.495-.345-.33-.517-.744-.517-1.243 0-.498.172-.913.517-1.243.345-.33.774-.495 1.287-.495.513 0 .946.165 1.298.495.352.33.528.745.528 1.243 0 .499-.176.913-.528 1.243-.352.33-.785.495-1.298.495zm8.734 13.288c-1.217 0-2.141-.308-2.772-.924-.63-.616-.946-1.518-.946-2.706v-5.83h-1.474V16.29h1.474v-2.486h3.168v2.486h2.42v2.266h-2.42V24.1c0 .91.425 1.364 1.276 1.364.455 0 .858-.073 1.21-.22v2.464a5.826 5.826 0 01-1.936.308zm8.513.022c-1.555 0-2.765-.33-3.63-.99-.866-.66-1.328-1.613-1.386-2.86h2.97c.073.543.264.95.572 1.221.308.272.792.407 1.452.407 1.202 0 1.804-.418 1.804-1.254 0-.381-.176-.674-.528-.88-.352-.205-.954-.366-1.804-.484-1.555-.234-2.651-.616-3.29-1.144-.637-.528-.956-1.342-.956-2.442 0-1.144.443-2.027 1.33-2.65.888-.624 1.962-.936 3.224-.936 2.904 0 4.488 1.188 4.752 3.564h-2.926c-.176-.924-.778-1.386-1.804-1.386-.514 0-.913.11-1.2.33-.285.22-.428.506-.428.858 0 .367.157.638.473.814.315.176.898.323 1.749.44 1.554.22 2.687.587 3.399 1.1.71.514 1.067 1.35 1.067 2.508 0 1.232-.422 2.171-1.265 2.816-.844.646-2.035.968-3.575.968zm6.864-.242V16.29h3.19v1.76c.308-.586.77-1.07 1.386-1.452.616-.381 1.327-.572 2.134-.572 1.598 0 2.669.668 3.212 2.002.894-1.334 2.185-2.002 3.872-2.002 1.129 0 2.042.367 2.739 1.1.696.734 1.045 1.834 1.045 3.3v7.37h-3.168v-7.018c0-1.422-.602-2.134-1.804-2.134-.646 0-1.177.206-1.595.616-.418.411-.627.99-.627 1.738v6.798h-3.168v-7.018c0-1.422-.602-2.134-1.804-2.134-.646 0-1.177.206-1.595.616-.418.411-.627.99-.627 1.738v6.798h-3.19zm25.608.242c-1.775 0-3.22-.524-4.334-1.573-1.115-1.048-1.672-2.475-1.672-4.279v-.176c0-1.789.56-3.234 1.683-4.334 1.122-1.1 2.533-1.65 4.235-1.65 1.613 0 2.951.492 4.015 1.474 1.063.983 1.595 2.442 1.595 4.378v.88h-8.294c.044.954.315 1.694.814 2.222.498.528 1.18.792 2.046.792 1.378 0 2.178-.535 2.398-1.606h3.014c-.191 1.247-.763 2.204-1.716 2.871-.954.668-2.215 1.001-3.784 1.001zm-2.728-7.238h5.148c-.103-1.716-.94-2.574-2.508-2.574-.72 0-1.31.224-1.771.671-.462.448-.752 1.082-.87 1.903h.001zm10.428 6.996V16.29h3.168v11.506h-3.168zm1.562-13.068c-.514 0-.943-.165-1.287-.495-.345-.33-.517-.744-.517-1.243 0-.498.172-.913.517-1.243.344-.33.773-.495 1.287-.495.513 0 .946.165 1.298.495.352.33.528.745.528 1.243 0 .499-.176.913-.528 1.243-.352.33-.785.495-1.298.495zm8.712 13.31c-1.555 0-2.765-.33-3.63-.99-.866-.66-1.328-1.613-1.386-2.86h2.97c.073.543.264.95.572 1.221.308.272.792.407 1.452.407 1.202 0 1.804-.418 1.804-1.254 0-.381-.176-.674-.528-.88-.352-.205-.954-.366-1.804-.484-1.555-.234-2.651-.616-3.29-1.144-.637-.528-.956-1.342-.956-2.442 0-1.144.443-2.027 1.33-2.65.888-.624 1.962-.936 3.224-.936 2.904 0 4.488 1.188 4.752 3.564h-2.926c-.176-.924-.778-1.386-1.804-1.386-.514 0-.913.11-1.2.33-.285.22-.428.506-.428.858 0 .367.157.638.473.814.315.176.898.323 1.749.44 1.554.22 2.687.587 3.399 1.1.71.514 1.067 1.35 1.067 2.508 0 1.232-.422 2.171-1.265 2.816-.844.646-2.035.968-3.575.968zm11.066-.022c-1.218 0-2.142-.308-2.772-.924-.631-.616-.946-1.518-.946-2.706v-5.83h-1.474V16.29h1.474v-2.486h3.168v2.486h2.42v2.266h-2.42V24.1c0 .91.425 1.364 1.276 1.364a3.12 3.12 0 001.21-.22v2.464a5.825 5.825 0 01-1.936.308zm9.394.022c-1.775 0-3.22-.524-4.334-1.573-1.115-1.048-1.672-2.475-1.672-4.279v-.176c0-1.789.56-3.234 1.683-4.334 1.122-1.1 2.533-1.65 4.235-1.65 1.613 0 2.951.492 4.015 1.474 1.063.983 1.595 2.442 1.595 4.378v.88h-8.294c.044.954.315 1.694.814 2.222.498.528 1.18.792 2.046.792 1.378 0 2.178-.535 2.398-1.606h3.014c-.191 1.247-.763 2.204-1.716 2.871-.954.668-2.215 1.001-3.784 1.001zm-2.728-7.238h5.148c-.103-1.716-.94-2.574-2.508-2.574-.72 0-1.31.224-1.771.671-.462.448-.752 1.082-.87 1.903h.001zm10.34 6.996V16.29h3.19v2.2c.733-1.569 1.972-2.361 3.718-2.376v2.97c-1.232-.014-2.16.21-2.783.671-.624.462-.935 1.221-.935 2.277v5.764h-3.19zM27.064 0H11.599C7.41 0 5.13 0 2.578 2.6.025 5.2 0 7.475 0 11.7v15.6c0 4.225.025 6.5 2.578 9.1C5.13 39 7.41 39 11.598 39h15.466c4.188 0 6.764 0 9.021-2.6 2.258-2.6 2.578-4.875 2.578-9.1V11.7c0-4.225-.02-6.5-2.578-9.1C33.527 0 31.262 0 27.064 0zm-13.21 19.3h-3.447v-2.39h4.769a31.128 31.128 0 012.294-3.188H7.162v11.556h3.245v-2.79h2.244a20.993 20.993 0 011.204-3.187l-.001-.001zm12.277-5.578l-2.093 6.167L22 13.722h-3.277c-1.763 2.862-2.231 7.851-2.231 11.556h3.245v-7.693l2.725 7.693h3.15l2.663-7.693v7.693H31.5V13.722h-5.37.001z" fill="#B2B2B2"/></svg>