<svg width="149" height="22" fill="none" xmlns="http://www.w3.org/2000/svg"><path fill-rule="evenodd" clip-rule="evenodd" d="M22.707 0H.064c-.33 1.32.66 2.42 1.87 2.42h20.663c2.748 0 4.946 2.64 4.287 5.5-.55 2.09-2.089 8.36-2.089 8.36-.44 1.98-2.198 3.3-4.287 3.3H3.691c-.769 0-1.429-.66-1.209-1.54.55-2.09 2.09-8.25 2.09-8.25.33-1.21-.66-2.42-1.87-2.42 0 0-1.868 7.48-2.528 10.01-.66 2.42 1.1 4.62 3.517 4.62h16.927c3.078 0 5.826-2.2 6.595-5.17 0 0 1.54-6.27 2.09-8.36C30.51 3.85 26.883 0 22.706 0zm30.666 19.58c-.44 2.09-.989 2.42-2.088 2.42H30.73a1.49 1.49 0 01-1.21-2.42h23.853zM87.557 0c-.44 2.09-.99 2.42-2.088 2.42H68.432c-1.979 0-3.737 1.32-4.287 3.3-.55 2.09-1.539 6.27-2.088 8.36-.77 2.97 1.538 5.5 4.286 5.5h16.268A1.907 1.907 0 0184.48 22H66.343c-4.616 0-7.694-4.18-6.595-8.47.44-2.09 1.54-6.16 2.09-8.36.66-3.08 3.406-5.17 6.594-5.17h19.125zm23.082 0H97.78c-3.077 0-5.825 2.2-6.595 5.17-.55 2.09-1.539 6.16-2.088 8.36-.99 4.29 2.088 8.47 6.595 8.47h12.86c3.078 0 5.826-2.2 6.595-5.17.55-2.09 1.539-6.16 2.088-8.36 1.1-4.29-1.978-8.47-6.595-8.47h-.001zm4.287 7.92c-.55 2.09-1.539 6.16-2.088 8.36-.44 1.98-2.199 3.3-4.287 3.3h-12.86c-2.638 0-5.056-2.53-4.287-5.5.55-2.09 1.54-6.27 2.09-8.36.55-2.09 2.417-3.3 4.175-3.3h12.97c2.748 0 5.057 2.53 4.287 5.5zM55.791 9.79l-.659 2.42H35.017l1.87-2.42H55.79zm-13.41-7.37C43.482.99 44.032 0 45.681 0h10.111a1.907 1.907 0 011.87 2.42h-15.28zm84.086 0c-.55 0-1.099.44-1.209.88 0 0-.88 3.63-1.209 4.84-.22.88.44 1.54 1.21 1.54h16.706c2.419 0 4.177 2.2 3.518 4.51-.33 1.21-.88 3.63-1.21 4.84-.33 1.32-1.538 2.75-3.517 2.75h-22.752c.44-2.09.989-2.42 2.088-2.42h20.664c.55 0 .99-.44 1.21-.88 0 0 .879-3.63 1.208-4.84.22-.77-.44-1.54-1.209-1.54h-16.707c-2.638 0-4.177-2.31-3.627-4.51.33-1.21.88-3.63 1.21-4.84C123.28.99 124.818 0 126.356 0H149c-.44 2.09-.99 2.42-2.088 2.42h-20.445z" fill="#B2B2B2"/></svg>