<svg width="155" height="48" fill="none" xmlns="http://www.w3.org/2000/svg"><path fill-rule="evenodd" clip-rule="evenodd" d="M63.896 9.29a9.194 9.194 0 00-1.826-.84 6.666 6.666 0 00-2.145-.337c-.394 0-.754.037-1.08.113a2.96 2.96 0 00-.846.327 1.675 1.675 0 00-.555.52 1.26 1.26 0 00-.2.702.97.97 0 00.215.643c.143.17.344.317.6.434.256.12.562.22.916.303.353.082.74.156 1.16.222l.79.129a10 10 0 011.756.434c.509.173.987.427 1.415.752.4.31.716.686.947 1.128.229.442.344.963.344 1.563 0 .765-.157 1.43-.47 1.994a4.185 4.185 0 01-1.265 1.404 5.72 5.72 0 01-1.832.836 8.387 8.387 0 01-2.165.277c-.533 0-1.07-.039-1.61-.114a10.914 10.914 0 01-1.577-.341 9.478 9.478 0 01-1.46-.569 6.958 6.958 0 01-1.255-.786l1.45-2.226c.253.198.544.387.87.57a7.69 7.69 0 002.276.806c.424.077.862.117 1.315.117.387 0 .749-.036 1.086-.109.337-.072.629-.18.876-.326a1.8 1.8 0 00.58-.523c.14-.206.21-.442.21-.713 0-.237-.063-.442-.19-.614a1.5 1.5 0 00-.565-.44 4.502 4.502 0 00-.931-.316c-.425-.1-.854-.184-1.285-.252l-.89-.139a9.354 9.354 0 01-1.711-.43 4.42 4.42 0 01-1.35-.757 3.322 3.322 0 01-.891-1.157c-.214-.455-.32-.996-.32-1.623 0-.718.151-1.352.455-1.904.304-.55.71-1.009 1.22-1.374a5.577 5.577 0 011.777-.831 7.9 7.9 0 012.13-.282c.487 0 .96.027 1.416.084.907.11 1.793.354 2.63.722.43.188.866.41 1.306.667l-1.32 2.256h-.001zm9.253.515c.668 0 1.288.128 1.861.385a4.6 4.6 0 011.491 1.058c.42.449.75.981.99 1.598.24.616.36 1.284.36 2.003a5.539 5.539 0 01-.355 2.003 4.844 4.844 0 01-.985 1.598c-.42.448-.917.8-1.49 1.058-.586.26-1.22.391-1.862.386-.653 0-1.212-.115-1.675-.341a3.615 3.615 0 01-1.175-.906v4.956h-2.601V10.062h2.55v1.058c.32-.396.716-.714 1.186-.955.47-.24 1.038-.36 1.705-.36zm6.833 9.842h2.61v-9.585h-2.61v9.585zm9.443-9.842c.653 0 1.212.114 1.675.346.464.23.856.533 1.176.91V5.402h2.601v14.244h-2.55v-1.058c-.32.389-.717.704-1.192.945-.472.24-1.043.361-1.71.361a4.499 4.499 0 01-1.86-.386 4.604 4.604 0 01-1.491-1.058 4.86 4.86 0 01-.985-1.598 5.53 5.53 0 01-.356-2.003c0-.72.118-1.387.356-2.003.236-.617.565-1.15.985-1.598.42-.448.916-.8 1.49-1.058a4.487 4.487 0 011.861-.385zm12.495-.001c.7 0 1.34.122 1.915.366.563.235 1.07.585 1.487 1.03.413.44.735.972.964 1.59.23.622.346 1.304.346 2.049 0 .29-.016.581-.05.87H99.71c.066.35.176.65.33.896.153.247.338.454.555.618.217.165.461.285.735.361.273.076.563.113.87.113.42 0 .846-.078 1.276-.237.43-.158.822-.385 1.175-.682l1.53 1.662a5.29 5.29 0 01-1.865 1.103 7.04 7.04 0 01-2.266.351c-.74 0-1.419-.121-2.035-.361a4.617 4.617 0 01-1.591-1.02 4.587 4.587 0 01-1.036-1.582c-.247-.616-.37-1.3-.37-2.053 0-.752.12-1.439.36-2.061a4.729 4.729 0 011.006-1.603 4.52 4.52 0 011.545-1.039 5.173 5.173 0 011.99-.371h.001zm12.104 0c.28 0 .532.018.756.054.222.036.425.088.605.154l-.39 2.562a4.362 4.362 0 00-1.581-.307c-.3 0-.576.046-.825.139a1.775 1.775 0 00-.645.405c-.18.178-.32.403-.42.672-.106.302-.156.62-.15.94v5.224h-2.612v-9.585h2.531v1.048a2.737 2.737 0 011.146-.994c.456-.208.985-.312 1.585-.312zM63.896 29.302a9.192 9.192 0 00-1.826-.84 6.665 6.665 0 00-2.145-.337c-.394 0-.754.037-1.08.113a2.96 2.96 0 00-.846.327 1.676 1.676 0 00-.555.52 1.26 1.26 0 00-.2.702.97.97 0 00.215.643c.143.171.344.317.6.435s.562.22.916.302c.353.083.74.156 1.16.222l.79.13a10 10 0 011.756.434c.509.173.987.427 1.415.752.4.31.716.685.947 1.127.229.442.344.963.344 1.563 0 .766-.157 1.43-.47 1.994a4.185 4.185 0 01-1.265 1.404 5.72 5.72 0 01-1.832.836 8.387 8.387 0 01-2.165.277c-.533 0-1.07-.038-1.61-.114a10.914 10.914 0 01-1.577-.341 9.478 9.478 0 01-1.46-.569 6.958 6.958 0 01-1.255-.786l1.45-2.226c.253.198.544.388.87.57a7.69 7.69 0 002.276.806c.424.078.862.117 1.315.117.387 0 .749-.036 1.086-.108.337-.073.629-.181.876-.326a1.8 1.8 0 00.58-.524c.14-.206.21-.442.21-.712 0-.238-.063-.443-.19-.614a1.5 1.5 0 00-.565-.44 4.5 4.5 0 00-.931-.317c-.425-.1-.854-.184-1.285-.252l-.89-.138a9.349 9.349 0 01-1.711-.431 4.42 4.42 0 01-1.35-.757 3.322 3.322 0 01-.891-1.157c-.214-.454-.32-.996-.32-1.622 0-.719.151-1.353.455-1.904a4.108 4.108 0 011.22-1.375c.539-.38 1.14-.66 1.777-.83a7.9 7.9 0 012.13-.283c.487 0 .96.028 1.416.084.907.11 1.793.354 2.63.722.43.188.866.41 1.306.668l-1.32 2.255h-.001zm10.655 3.066H71.04v3.502c0 .297.038.55.115.757.076.208.18.376.31.504.129.13.283.223.46.282.177.06.365.09.565.09.313 0 .628-.064.945-.194.317-.128.608-.271.876-.43l.96 2.018c-.427.29-.897.53-1.41.722-.514.191-1.115.287-1.801.287-1.208 0-2.114-.327-2.721-.98-.607-.652-.91-1.602-.91-2.848v-3.71h-1.872v-2.294h1.871v-2.848h2.612v2.848h3.51v2.294h.001zm7.562-2.551c.28 0 .532.017.756.053.222.037.425.088.605.155l-.39 2.561a3.707 3.707 0 00-.75-.223 4.358 4.358 0 00-.831-.083c-.3 0-.576.045-.825.138a1.78 1.78 0 00-.645.406c-.18.177-.32.402-.42.672-.101.27-.15.583-.15.94v5.223H76.85v-9.585h2.531v1.049c.28-.433.678-.778 1.146-.995.456-.208.985-.311 1.585-.311h.001zm12.355 9.842h-2.55V38.6a3.67 3.67 0 01-1.192.945c-.473.24-1.043.361-1.71.361a4.5 4.5 0 01-1.86-.385 4.603 4.603 0 01-1.491-1.059 4.86 4.86 0 01-.986-1.597 5.53 5.53 0 01-.355-2.004c0-.719.118-1.387.355-2.002.237-.618.566-1.15.986-1.599.42-.448.916-.8 1.49-1.057a4.487 4.487 0 011.861-.386c.667 0 1.237.12 1.71.36.474.241.871.56 1.192.955v-1.058h2.55v9.585zm9.774-7.29h-3.511v3.5c0 .298.038.55.115.758.076.208.18.376.31.504.13.13.283.223.46.282.177.06.365.09.565.09.314 0 .629-.064.946-.194.316-.128.608-.271.875-.43l.96 2.018c-.427.29-.897.53-1.41.722-.514.191-1.114.287-1.8.287-1.209 0-2.115-.327-2.722-.98-.607-.652-.91-1.602-.91-2.848v-3.71h-1.871v-2.294h1.87v-2.848h2.612v2.848h3.511v2.295zm6.482-2.553c.7 0 1.34.122 1.915.367a4.31 4.31 0 011.487 1.029c.413.44.735.972.964 1.591.231.62.346 1.303.346 2.048 0 .29-.016.581-.05.87h-6.872c.066.35.176.65.33.896.153.248.339.454.555.618.217.165.461.286.735.361.273.076.564.113.871.113.42 0 .845-.078 1.275-.236.43-.159.822-.386 1.175-.682l1.53 1.661a5.29 5.29 0 01-1.864 1.103 7.037 7.037 0 01-2.267.351c-.74 0-1.419-.12-2.035-.36a4.614 4.614 0 01-1.591-1.02 4.587 4.587 0 01-1.036-1.583c-.247-.616-.37-1.3-.37-2.052s.12-1.44.36-2.062a4.729 4.729 0 011.006-1.603c.43-.445.945-.79 1.546-1.038a5.172 5.172 0 011.99-.372zm10.705 0c.68 0 1.266.119 1.76.357.493.238.906.561 1.24.97v-1.07h2.56v8.795c0 .771-.121 1.462-.365 2.072a4.214 4.214 0 01-1.05 1.552 4.624 4.624 0 01-1.65.975c-.644.224-1.365.336-2.166.336a9.162 9.162 0 01-2.286-.292 7.225 7.225 0 01-1.046-.36 5.252 5.252 0 01-.91-.505l.93-2.107c.488.316.996.559 1.527.727.53.169 1.088.252 1.674.252.407 0 .78-.054 1.117-.163.335-.108.626-.27.87-.485.244-.213.433-.48.57-.796.143-.348.213-.721.205-1.097v-.673a3.552 3.552 0 01-1.235.95c-.491.23-1.072.346-1.745.346a4.2 4.2 0 01-1.697-.351 4.407 4.407 0 01-1.42-.99 4.768 4.768 0 01-.98-1.543 5.318 5.318 0 01-.366-2.003c0-.739.122-1.408.365-2.008.244-.6.57-1.115.98-1.543.403-.423.886-.76 1.421-.994a4.183 4.183 0 011.697-.351v-.001zm8.303 9.842h2.61v-9.584h-2.61v9.584zm1.29-14.382c.232 0 .451.043.654.129a1.61 1.61 0 01.886.88c.087.205.13.423.13.653a1.646 1.646 0 01-.485 1.172c-.15.148-.327.264-.531.347-.208.083-.43.124-.654.123a1.74 1.74 0 01-.656-.123 1.587 1.587 0 01-.88-.87 1.679 1.679 0 01-.125-.649c0-.23.041-.448.125-.652.083-.206.2-.382.35-.53.316-.31.743-.483 1.186-.48zm8.362 4.54c.7 0 1.34.122 1.915.367a4.31 4.31 0 011.487 1.029c.413.44.735.972.964 1.591.231.62.346 1.303.346 2.048 0 .29-.016.581-.05.87h-6.872c.066.35.176.65.33.896.153.248.338.454.555.618.217.165.461.286.735.361.273.076.564.113.871.113.42 0 .845-.078 1.275-.236.43-.159.822-.386 1.175-.682l1.53 1.661a5.29 5.29 0 01-1.865 1.103 7.04 7.04 0 01-2.266.351c-.74 0-1.419-.12-2.035-.36a4.614 4.614 0 01-1.591-1.02 4.587 4.587 0 01-1.036-1.583c-.247-.616-.37-1.3-.37-2.052s.12-1.44.36-2.062a4.729 4.729 0 011.006-1.603c.43-.445.945-.79 1.546-1.038a5.172 5.172 0 011.99-.372zm13.725 2.928a8.943 8.943 0 00-1.426-.529 7.56 7.56 0 00-.83-.183 5.282 5.282 0 00-.835-.07c-.5 0-.874.08-1.12.238-.247.159-.37.37-.37.634a.5.5 0 00.125.346c.093.1.208.177.335.227.14.059.306.108.5.144.194.036.4.07.62.104l.86.128c1.054.159 1.863.472 2.426.94.564.468.846 1.11.846 1.929 0 .495-.1.943-.3 1.344a2.838 2.838 0 01-.871 1.024c-.38.28-.847.499-1.4.654a7.015 7.015 0 01-1.88.232c-.335 0-.686-.018-1.057-.054a9.262 9.262 0 01-1.12-.183 7.685 7.685 0 01-1.115-.346 5.004 5.004 0 01-1.02-.545l1.03-1.958c.206.138.427.264.66.376a5.694 5.694 0 001.626.494c.31.047.648.07 1.015.07.607 0 1.057-.08 1.35-.238.294-.159.44-.379.44-.662 0-.232-.126-.416-.38-.554-.254-.14-.663-.247-1.23-.326l-.79-.11c-2.235-.303-3.351-1.272-3.351-2.908 0-.495.093-.935.28-1.32.187-.387.456-.714.81-.985.353-.27.782-.476 1.286-.618a6.308 6.308 0 011.715-.213c.386 0 .756.019 1.106.055a8.908 8.908 0 011.99.449c.317.114.635.248.955.407l-.88 2.007zM20.863 0l-9.792 5.68v10.555l18.905-11.03L20.863 0zM9.335 6.638L0 11.91v16.63l9.335-5.277V6.638zm27.768 2.634L0 30.455v5.282l4.627 2.64 37.104-21.181v-5.283l-4.628-2.64v-.001zM20.867 47.65l9.793-5.678V31.417L11.754 42.446l9.113 5.204zm11.53-6.635l9.334-5.276V19.107l-9.333 5.28v16.628h-.001zm89.692-8.824c-.374 0-.71.066-1.011.197a2.324 2.324 0 00-1.26 1.34c-.114.307-.17.635-.17.985s.056.676.17.98a2.312 2.312 0 001.26 1.335 2.5 2.5 0 001.01.198c.36 0 .691-.065.99-.193a2.281 2.281 0 001.266-1.326c.116-.306.175-.638.175-.994.003-.34-.057-.68-.175-.999a2.33 2.33 0 00-.495-.801c-.214-.224-.47-.4-.77-.53a2.474 2.474 0 00-.99-.192zm-32.593.03c-.38 0-.725.068-1.035.207a2.36 2.36 0 00-1.29 1.404 3.01 3.01 0 00-.176 1.03c0 .368.059.712.175 1.032.116.32.284.6.5.837.217.237.48.425.79.563.31.139.656.208 1.036.208.373 0 .714-.066 1.02-.198.307-.131.57-.316.79-.553.22-.238.391-.518.511-.841.12-.323.18-.673.18-1.049 0-.376-.06-.726-.18-1.048a2.514 2.514 0 00-.51-.84 2.317 2.317 0 00-.79-.556 2.567 2.567 0 00-1.02-.197l-.001.001zm21.208-.18c-.62 0-1.11.171-1.47.51-.36.34-.597.81-.71 1.41h4.292c-.12-.62-.36-1.095-.72-1.424-.361-.33-.825-.495-1.392-.495v-.001zm28.66 0c-.62 0-1.11.171-1.47.51-.36.34-.597.81-.71 1.41h4.292c-.12-.62-.36-1.095-.72-1.424-.361-.33-.825-.495-1.392-.495v-.001zM89.906 12.209c-.38 0-.726.07-1.036.207a2.36 2.36 0 00-1.29 1.405c-.118.33-.178.678-.176 1.029 0 .369.059.713.176 1.033.116.32.283.599.5.836.216.238.48.426.79.564.31.139.656.208 1.036.208.373 0 .713-.066 1.02-.198.306-.131.57-.317.79-.553.22-.238.39-.518.51-.842.12-.322.18-.672.18-1.048s-.06-.726-.18-1.048a2.514 2.514 0 00-.51-.84 2.317 2.317 0 00-.79-.556 2.567 2.567 0 00-1.02-.197zm-8.633-6.944a1.661 1.661 0 011.54 1.01c.087.204.13.421.13.652a1.64 1.64 0 01-.485 1.172c-.15.148-.327.264-.531.346a1.72 1.72 0 01-.654.124c-.234 0-.453-.041-.656-.124a1.587 1.587 0 01-.88-.87 1.674 1.674 0 01-.126-.648c0-.231.042-.448.126-.653a1.576 1.576 0 01.88-.88c.203-.087.422-.129.656-.129zm-8.603 6.944a2.53 2.53 0 00-1.016.197 2.314 2.314 0 00-.785.555c-.22.238-.39.518-.51.84a3 3 0 00-.18 1.049c0 .376.06.726.18 1.048.12.324.29.604.51.842.22.236.481.422.785.553.304.132.643.198 1.016.198.358.006.712-.065 1.04-.208a2.37 2.37 0 001.285-1.4c.117-.32.176-.664.176-1.033 0-.363-.059-.706-.176-1.03a2.382 2.382 0 00-2.325-1.611zm29.23-.178c-.62 0-1.11.17-1.47.51-.36.34-.598.808-.71 1.409h4.291c-.12-.62-.36-1.095-.72-1.424-.36-.33-.825-.495-1.39-.495h-.001z" fill="#B2B2B2"/></svg>