<svg width="21" height="21" viewBox="0 0 21 21" fill="none" xmlns="http://www.w3.org/2000/svg">
<path d="M4.6875 21H0.328125V6.98438H4.6875V21ZM2.53125 5.0625C1.84375 5.0625 1.25 4.8125 0.75 4.3125C0.25 3.8125 0 3.21875 0 2.53125C0 1.84375 0.25 1.25 0.75 0.75C1.25 0.25 1.84375 0 2.53125 0C2.96875 0 3.375 0.109375 3.75 0.328125C4.15625 0.546875 4.46875 0.859375 4.6875 1.26562C4.9375 1.64062 5.0625 2.0625 5.0625 2.53125C5.0625 2.96875 4.9375 3.39062 4.6875 3.79688C4.46875 4.17188 4.15625 4.48438 3.75 4.73438C3.375 4.95313 2.96875 5.0625 2.53125 5.0625ZM21 21H16.6406V14.1562C16.6406 13.625 16.625 13.2031 16.5938 12.8906C16.5625 12.5469 16.4844 12.1719 16.3594 11.7656C16.2344 11.3281 16 11 15.6562 10.7812C15.3438 10.5625 14.9219 10.4531 14.3906 10.4531C13.3594 10.4531 12.6562 10.7812 12.2812 11.4375C11.9375 12.0938 11.7656 12.9688 11.7656 14.0625V21H7.40625V6.98438H11.625V8.90625H11.6719C11.9844 8.28125 12.5 7.75 13.2188 7.3125C13.9375 6.84375 14.7969 6.60938 15.7969 6.60938C16.8594 6.60938 17.7344 6.78125 18.4219 7.125C19.1406 7.4375 19.6719 7.92188 20.0156 8.57812C20.3906 9.20312 20.6406 9.89062 20.7656 10.6406C20.9219 11.3906 21 12.2812 21 13.3125V21Z" fill="#B2B2B2"/>
</svg>
