<svg width="27" height="18" viewBox="0 0 27 18" fill="none" xmlns="http://www.w3.org/2000/svg">
<path d="M10.875 8.10938C12.9062 8.67188 13.9219 10.0781 13.9219 12.3281C13.9219 13.9219 13.3594 15.125 12.2344 15.9375C11.1094 16.75 9.71875 17.1562 8.0625 17.1562H0V0.515625H7.82812C11.3594 0.515625 13.125 1.89062 13.125 4.64062C13.125 6.23438 12.375 7.39062 10.875 8.10938ZM3.65625 3.375V7.26562H7.35938C8.82812 7.26562 9.5625 6.59375 9.5625 5.25C9.5625 4 8.73438 3.375 7.07812 3.375H3.65625ZM7.54688 14.3438C9.35938 14.3438 10.2656 13.6094 10.2656 12.1406C10.2656 10.5469 9.39062 9.75 7.64062 9.75H3.65625V14.3438H7.54688ZM24.375 3.04688H17.625V1.40625H24.375V3.04688ZM27 11.2969C27 11.4531 26.9844 11.6562 26.9531 11.9062H18.2812C18.2812 12.9062 18.5312 13.6719 19.0312 14.2031C19.5625 14.7344 20.2969 15 21.2344 15C21.5781 15 21.9219 14.9375 22.2656 14.8125C22.6406 14.6875 22.9688 14.5156 23.25 14.2969C23.5625 14.0469 23.7656 13.75 23.8594 13.4062H26.7656C25.8906 16.0938 24.0156 17.4375 21.1406 17.4375C19.2656 17.4375 17.7656 16.8594 16.6406 15.7031C15.5469 14.5469 15 13.0312 15 11.1562C15 9.3125 15.5625 7.79688 16.6875 6.60938C17.8438 5.39062 19.3281 4.78125 21.1406 4.78125C22.9531 4.78125 24.375 5.40625 25.4062 6.65625C26.4688 7.90625 27 9.45312 27 11.2969ZM18.2812 9.84375H23.6719C23.5156 8.125 22.6406 7.26562 21.0469 7.26562C20.2656 7.26562 19.625 7.5 19.125 7.96875C18.625 8.4375 18.3438 9.0625 18.2812 9.84375Z" fill="#B2B2B2"/>
</svg>
