<svg width="145" height="40" fill="none" xmlns="http://www.w3.org/2000/svg"><path fill-rule="evenodd" clip-rule="evenodd" d="M133.545 13.242c-.141-.119-.291-.204-.43-.21a47.03 47.03 0 00-2.463-.025c-.835.008-1.693.025-2.586.025.056.087.107.17.155.247.23.367.392.636.572.892 1.431 2.042 2.833 4.106 4.323 6.105.417.56.464.976.218 1.456a2.774 2.774 0 01-.25.392c-.442.592-.875 1.19-1.304 1.79-.836 1.172-1.655 2.355-2.485 3.53-.423.598-.84 1.2-1.403 2.005.81 0 1.54-.016 2.23-.02.572-.006 1.144.007 1.714.039.403.025.726-.03.999-.17.317-.16.567-.437.796-.837.262-.456.535-.904.819-1.355.554-.882 1.146-1.77 1.758-2.732 1.04 1.562 1.922 2.917 2.839 4.25.211.306.525.753.81.766.826.034 1.653.05 2.479.046.847 0 1.726-.01 2.664-.01-1.87-2.66-3.554-5.092-5.287-7.49-.229-.316-.342-.578-.323-.849.015-.217.114-.44.306-.701a206.69 206.69 0 002.589-3.622l.788-1.125 1.086-1.55c.114-.162.222-.329.342-.518.101-.16.212-.337.344-.542-1.546 0-2.854.045-4.157-.018-.293-.014-.526.027-.724.12-.278.131-.485.367-.682.7a68.907 68.907 0 01-1.121 1.82c-.463.73-.951 1.486-1.473 2.311-.177-.27-.348-.537-.515-.8-.633-.994-1.206-1.932-1.801-2.836a38.89 38.89 0 00-.413-.616 2.41 2.41 0 00-.414-.468zM75.383 24.628c-.387.101-.728.318-1.057.735l-.046.057c-.918 1.081-3.07 1.312-4.47.642a3.334 3.334 0 01-.909-.645 3.78 3.78 0 01-1.048-3.243h11.994c.2-3.263-.316-6.143-3.116-8.08-5.632-3.897-13.395-.464-14.097 6.293-.22 2.115.078 4.084.966 5.671.906 1.62 2.426 2.84 4.638 3.414 2.068.537 4.16.574 6.22-.002 1.058-.296 2.01-.714 2.82-1.315 1.094-.813 1.925-1.96 2.398-3.593-.854 0-1.608.012-2.329.01-.37-.001-.73-.007-1.092-.019a3.012 3.012 0 00-.872.075zM34.633 6.434c3.39 3.624 5.48 8.49 5.431 13.826-.1 10.92-8.959 19.753-19.958 19.739C9.113 40.122-.06 30.869 0 19.832c.038-6.87 3.57-12.845 8.815-16.394A19.895 19.895 0 0120.02 0c5.688.013 10.921 2.488 14.613 6.434zm16.316 6.652v16.258h4.778c0-.574-.004-1.042 0-1.51.02-2.296-.047-4.596.082-6.885.176-3.127 2.208-4.492 5.203-3.636.108.03.223.037.41.067.196-.94.397-1.86.58-2.783.292-1.496.17-1.673-1.342-1.886a5.791 5.791 0 00-1.063-.029c-1.778.082-2.952 1.12-3.993 2.807l-.135-2.403h-4.52zm70.143 16.248h4.768V13.086h-4.768v16.248zm-8.176-.684c.226.324.614.738.944.754 1.645.077 3.296.035 5.213.035l-6.712-9.846 6.143-6.564c-1.116 0-1.914.1-2.679-.02-2.091-.326-3.583.414-4.825 2.126-1.046 1.442-2.367 2.683-3.567 4.014l-.271-.124V4.849h-4.85v24.52h4.82c.25-2.214-.727-4.789 2.116-6.132 1.194 1.771 2.41 3.607 3.668 5.413zm-17.798.699v-2.005c-.83.662-1.5 1.398-2.33 1.827-3.53 1.827-8.163.23-9.769-3.396-1.314-2.969-1.284-6.022.086-8.969 1.494-3.215 5.144-4.925 8.548-3.91 1.217.363 2.264 1.292 3.32 1.922V4.85l4.235-.022v24.5l-4.09.02v.001zM120.9 9.05h5.046V4.846H120.9v4.205-.001zM31.212 26.79c.891.236 1.847.232 2.954.352-.259.501-.432.924-.678 1.302-3.65 5.606-9.74 8.08-15.453 7.328-7.092-.933-12.167-6.04-13.582-12.502-1.92-8.768 4.1-17.377 13.227-18.95 9.33-1.608 18.313 5.932 18.271 15.334-.008 1.952-1.119 3.199-2.868 3.22-1.727.02-2.897-1.203-3.003-3.14-.273-5-3.448-8.643-8.41-9.654-5.647-1.15-11.47 3.559-11.7 9.307-.19 4.748 2.723 8.65 6.634 10.093 4.13 1.523 8.497.226 11.473-3.41.125-.152.234-.317.33-.45 1.06.455 1.901.931 2.805 1.17zm-11.26-.91c-3.194-.028-5.847-2.763-5.795-5.975.051-3.191 2.781-5.832 5.993-5.797 3.19.035 5.832 2.762 5.793 5.983-.039 3.188-2.758 5.816-5.99 5.788v.001zm66.867-1.648c.527 1.276 1.604 1.952 2.98 2.022 1.368.069 2.455-.505 3.207-1.671 1.18-1.83 1.147-5.003-.076-6.777-1.448-2.102-4.473-2.124-5.76.072-.597 1.018-.805 2.265-1.165 3.339.295 1.131.444 2.119.814 3.015zM67.95 19.3c.042-2.033 1.525-3.351 3.644-3.296 1.944.05 3.101 1.276 3.04 3.296h-6.685z" fill="#B2B2B2"/></svg>