<svg width="24" height="24" fill="none" xmlns="http://www.w3.org/2000/svg"><path d="M8.156 18.61c0 .124-.078.187-.234.187-.188.031-.281-.031-.281-.188 0-.093.078-.14.234-.14.188-.032.281.015.281.14zm-1.265.046c-.188-.031-.266-.11-.235-.234.063-.125.172-.156.328-.094.157.031.22.11.188.235-.031.125-.125.156-.281.093zm1.875-.328c.156 0 .234.047.234.14.031.095-.031.173-.188.235-.156.031-.25-.015-.28-.14 0-.125.077-.204.234-.235zM11.859.375c2.125 0 4.094.5 5.907 1.5C19.578 2.875 21 4.25 22.03 6c1.063 1.75 1.594 3.688 1.594 5.813 0 2.593-.734 4.921-2.203 6.984-1.438 2.031-3.328 3.437-5.672 4.219-.25.062-.453.03-.61-.094a.636.636 0 01-.187-.469v-3.937c0-1-.265-1.72-.797-2.157a58.316 58.316 0 001.594-.234c.375-.063.844-.203 1.406-.422.563-.219.985-.5 1.266-.844.312-.343.578-.828.797-1.453.218-.625.328-1.375.328-2.25 0-.594-.094-1.078-.281-1.453-.188-.375-.5-.797-.938-1.265.375-.97.344-2.032-.094-3.188-.312-.094-.734-.031-1.265.188a7.34 7.34 0 00-1.407.656L15 6.516a10.706 10.706 0 00-3-.422c-1 0-1.969.14-2.906.422a4.852 4.852 0 00-.656-.422c-.282-.188-.72-.39-1.313-.61-.563-.25-.984-.328-1.266-.234-.468 1.156-.515 2.219-.14 3.188-.719.78-1.078 1.687-1.078 2.718 0 .875.109 1.625.328 2.25.218.625.468 1.11.75 1.453.281.344.687.625 1.218.844.532.219.985.375 1.36.469.406.062.937.125 1.594.187-.407.375-.657.907-.75 1.594a5.1 5.1 0 01-.985.281c-.312.063-.719 0-1.219-.187-.5-.188-.906-.547-1.218-1.078a2.051 2.051 0 00-.75-.797c-.282-.219-.532-.344-.75-.375l-.282-.047c-.687 0-.718.234-.093.703.219.125.437.328.656.61.219.28.375.53.469.75l.187.375c.125.375.344.687.657.937.312.25.656.406 1.03.469.376.062.735.093 1.079.093s.625-.015.844-.046l.328-.047v1.687c.031.75.047 1.14.047 1.172a.577.577 0 01-.235.469c-.125.125-.312.156-.562.094-2.375-.782-4.297-2.188-5.766-4.22C1.11 16.735.375 14.407.375 11.814c0-3.25 1.094-5.97 3.281-8.157C5.875 1.47 8.61.375 11.86.375zM4.922 16.547c.062-.063.14-.047.234.047.094.093.11.172.047.234-.062.063-.14.047-.234-.047-.094-.093-.11-.172-.047-.234zm-.516-.375c.063-.063.14-.078.235-.047.093.063.125.125.093.188-.03.093-.093.109-.187.046-.125-.062-.172-.125-.14-.187zm1.547 1.64c.063-.093.156-.078.281.047.125.125.157.235.094.328-.094.094-.203.079-.328-.046s-.14-.235-.047-.328zm-.562-.656c.093-.093.187-.062.28.094.095.125.095.219 0 .281-.093.063-.187.032-.28-.093-.063-.157-.063-.25 0-.282z" fill="#B2B2B2"/></svg>