<svg width="171" height="40" fill="none" xmlns="http://www.w3.org/2000/svg"><path fill-rule="evenodd" clip-rule="evenodd" d="M13.095 0l1.8 3.135c.36.65.36 1.442 0 2.09L4.167 23.856l5.076 8.793a4.475 4.475 0 003.852 2.234c1.584 0 3.06-.865 3.852-2.234l5.076-8.793-1.332-2.378-5.76 9.982c-.36.648-1.08 1.045-1.8 1.045-.756 0-1.44-.397-1.8-1.045l-4.428-7.604 9.972-17.297 1.8 3.135c.36.649.36 1.441 0 2.09l-6.948 12.072 1.368 2.379 7.56-13.118 4.968 8.613a4.338 4.338 0 010 4.288l-5.04 8.757c-.756 1.333-3.168 4.324-7.488 4.324s-6.696-2.99-7.488-4.324l-5.04-8.757a4.338 4.338 0 010-4.288L13.095 0zM36.53 9.334h3.492v20.648H36.53V9.334zm8.172 3.783a2.053 2.053 0 10.002-4.106 2.053 2.053 0 00-.002 4.106zm-1.764 2.523h3.528v14.342h-3.528V15.64zm12.78-.36c-3.996 0-7.236 2.81-7.236 7.279 0 4.468 2.808 7.207 7.272 7.207 1.764 0 3.636.901 3.636 2.883s-1.584 3.1-3.636 3.1-3.744-1.226-3.744-3.1h-3.528c0 3.856 3.096 6.414 7.272 6.414 4.14 0 7.164-2.45 7.164-6.414 0-1.838-.576-3.568-2.952-4.757 2.34-1.08 3.024-3.567 3.024-5.37 0-4.432-3.276-7.242-7.272-7.242zm17.496 0c-1.62 0-3.168.504-4.464 2.126V9.298h-3.528v20.648h3.528v-7.279c0-2.126 1.44-3.892 3.528-3.892 1.872 0 3.24 1.117 3.24 3.712v7.46h3.528v-7.712c.036-4.217-1.764-6.955-5.832-6.955zM87.65 27.532c-.432 0-.792-.144-1.008-.433-.216-.288-.324-.72-.324-1.369v-7.063h2.844l.324-3.063h-3.132v-3.928l-3.564.396v3.568h-2.7v3.063h2.7v7.135c0 1.478.36 2.595 1.044 3.352.684.756 1.728 1.153 3.06 1.153.612 0 1.188-.072 1.8-.253a5.594 5.594 0 001.62-.756l-1.224-2.27a2.53 2.53 0 01-1.44.468zm14.508-5.261c-1.44-.901-3.132-1.01-4.788-1.118-.972-.072-2.448-.288-2.448-1.55 0-.9.936-1.404 2.628-1.404 1.368 0 2.556.324 3.564 1.26l1.98-2.306c-1.656-1.441-3.348-1.873-5.616-1.873-2.628 0-6.084 1.153-6.084 4.468 0 1.37.72 2.63 1.908 3.351 1.332.83 3.06.937 4.536 1.118 1.008.108 2.664.36 2.376 1.765-.18.973-1.368 1.262-2.196 1.298-.9.036-1.8-.036-2.7-.253-.936-.252-1.692-.684-2.52-1.225l-1.8 2.27c.108.072.216.18.216.18 2.304 1.91 5.508 2.523 8.424 1.874 2.196-.504 4.068-2.09 4.068-4.468.072-1.333-.36-2.667-1.548-3.387zm11.628-6.991c-1.62 0-3.528.684-4.644 2.27l-.108-1.946h-3.42v20.649l3.528-.397v-7.567c1.008 1.55 3.204 2.054 4.716 2.054 4.572 0 7.236-3.424 7.236-7.568 0-4.216-2.916-7.495-7.308-7.495zm11.916 8.792c.396 1.694 1.944 3.172 4.464 3.172 1.296 0 3.024-.65 3.852-1.478L136.287 28c-1.512 1.55-3.996 2.307-6.156 2.307-4.464 0-7.704-2.955-7.704-7.532 0-4.324 3.348-7.495 7.452-7.495 4.32 0 7.92 2.955 7.56 8.792h-11.736zm16.344 0c.396 1.694 1.944 3.172 4.464 3.172 1.296 0 3.024-.65 3.852-1.478L152.631 28c-1.512 1.55-3.996 2.307-6.156 2.307-4.464 0-7.704-2.955-7.704-7.532 0-4.324 3.348-7.495 7.452-7.495 4.32 0 7.92 2.955 7.56 8.792h-11.736zm20.268 6.27c1.62 0 3.528-.684 4.644-2.27l.108 1.91h3.42V9.334h-3.528v8c-1.008-1.55-3.24-2.018-4.752-2.018-4.572 0-7.2 3.387-7.2 7.567s2.916 7.46 7.308 7.46v-.001zm-106.56-3.495c-2.052 0-3.744-1.766-3.744-4.288 0-2.487 1.692-4.324 3.744-4.324 2.052 0 3.708 1.873 3.708 4.324 0 2.486-1.692 4.288-3.708 4.288zm57.744.433c-2.412 0-4.032-2.199-4.032-4.433s1.512-4.612 4.032-4.612c2.556 0 4.032 2.414 4.032 4.612.036 2.234-1.62 4.433-4.032 4.433zm20.52-5.91c-.396-1.694-2.088-3.171-4.14-3.171-1.908 0-3.672 1.297-4.176 3.17h8.316v.001zm16.38 0c-.396-1.694-2.088-3.171-4.14-3.171-1.908 0-3.672 1.297-4.176 3.17h8.316v.001zm12.168-3.027c2.412 0 4.032 2.198 4.032 4.432 0 2.234-1.512 4.613-4.032 4.613-2.556 0-4.032-2.415-4.032-4.613 0-2.234 1.62-4.432 4.032-4.432z" fill="#B2B2B2"/></svg>