<svg width="102" height="39" fill="none" xmlns="http://www.w3.org/2000/svg"><path fill-rule="evenodd" clip-rule="evenodd" d="M28.038 6C29.646 6 31 4.696 31 2.979A2.97 2.97 0 0028.038 0C26.383 0 25 1.306 25 2.979 25 4.696 26.383 6 28.038 6zm1.46 13.614V10H25v9.614C25 24.797 29.035 29 34 29v-4.684c-2.481 0-4.503-2.112-4.503-4.702h.001zm20.89-8.198C49.005 10.583 47.46 10 45.672 10h-.046c-2.567 0-4.984 1.028-6.798 2.768A9.25 9.25 0 0036 19.418v.373c0 5.157 4.277 9.34 9.61 9.34a9.505 9.505 0 004.778-1.287V39H55V10.268h-4.612v1.148zm47.261 6.678l-2.934-.936c-1.019-.347-1.835-.896-1.79-1.63.086-1.377 1.23-1.733 2.368-1.66.86.055 1.87.47 2.197 1.376l3.937-1.943c-1.106-2.141-3.551-3.128-6.006-3.285-3.56-.228-6.739 2.065-6.92 4.982-.132 2.14.154 4.311 4.714 5.887l2.414.79c1.272.392 1.939.906 1.839 1.837-.065 1.053-1.143 1.73-2.447 1.687-1.531-.034-2.791-.965-3.088-2.07L88 25.06c1.068 2.347 3.68 3.747 6.326 3.917 3.708.238 7.434-1.437 7.663-5.13.09-1.45-.264-4.4-4.34-5.754v.001zM10.953 1H9.222C6.757 1 4.444 2.072 2.696 3.853.96 5.611 0 7.921 0 10.563h4.61c0-1.367.486-2.403 1.364-3.294a4.504 4.504 0 013.248-1.351h1.656v13.716c0 5.172 4.036 9.366 9.328 9.366v-4.674c-2.78 0-4.844-2.108-4.844-4.692V5.918H22V1H10.953zm54.028 9C60.305 10 56 13.722 56 19.43c0 6.037 4.417 9.57 9.427 9.57 3.685 0 6.293-1.736 7.624-4.068l-3.902-1.856c-.704 1.075-1.87 1.774-3.685 1.774-2.45 0-4.49-1.864-4.602-4.083h13.064s.074-.789.074-1.48C74 13.543 70.623 10 64.981 10zm13.45 9.591c0 4.637 3.823 8.409 8.526 8.409v-4.476c-2.193 0-3.99-1.75-3.99-3.933h-.004v-5.825H87V9.913h-4.037V4H78.43v5.913H75v3.853h3.43v5.825h.001zm-27.966.2c0 1.244-.562 2.42-1.477 3.29-.9.895-2 1.378-3.288 1.378-2.666 0-4.72-2.09-4.72-4.668v-.373c0-1.239.437-2.416 1.349-3.292a4.826 4.826 0 013.354-1.39c2.65.01 4.763 2.046 4.763 4.633l.02.422h-.001zm10.509-2.309c.11-1.775 1.521-3.527 4.082-3.527 2.82 0 4.008 1.752 4.082 3.527h-8.164z" fill="#B2B2B2"/></svg>