<svg width="85" height="43" fill="none" xmlns="http://www.w3.org/2000/svg"><path fill-rule="evenodd" clip-rule="evenodd" d="M30.987 16.43l-2.654 8.555c.81.317 1.71.498 2.654.498s1.844-.18 2.608-.452l-2.608-8.6v-.001zM0 0v43h42.77L84.595 0H0zm51.585 26.479h-2.699v8.193H36.563l-1.214-3.938c-1.304.452-2.788.679-4.362.679-1.62 0-3.104-.272-4.453-.725l-1.259 3.938h-7.556l.81-2.263c-.09.09-.18.181-.315.272-1.889 1.584-4.272 2.399-7.15 2.49h-.45c-3.373 0-6.656-.951-9.445-2.58l2.564-5.251c2.788 1.674 4.542 2.082 6.88 2.037 1.215-.046 2.114-.272 2.7-.86.359-.363.539-.815.539-1.313.045-1.358-1.844-1.992-4.183-2.761-1.889-.589-4.002-1.403-5.666-2.67-1.98-1.494-2.924-3.35-2.879-5.975.045-1.901.72-3.621 1.98-4.98C4.946 8.827 7.87 7.65 11.423 7.65c3.057 0 6.745.906 9.444 2.309l-2.924 5.205c-2.923-1.448-4.407-1.584-6.071-1.675-2.519-.135-3.778.77-3.778 1.766 0 1.177 2.339 2.308 4.587 3.032 3.418 1.087 7.736 2.58 8.366 6.88l6.206-17.019h7.196l7.285 20.324V8.057h8.32c7.96 0 11.694 2.897 11.694 9.279.18 5.703-3.688 9.143-10.164 9.143h.001zm-.855-12.81h-1.844v6.88h1.844c2.429 0 4.407-.814 4.407-3.485 0-2.535-1.978-3.395-4.407-3.395z" fill="#B2B2B2"/></svg>