<svg width="62" height="54" fill="none" xmlns="http://www.w3.org/2000/svg"><path fill-rule="evenodd" clip-rule="evenodd" d="M4.453 53.835V49.01l57.36-21.157v4.826L4.453 53.835zm21.73-16.175s-.624-.517-.613-2.37c.009-1.336 0-5.324 0-5.324 0-.804-.294-1.17-.811-1.17-.222-.001-.517.071-.887.216l-2.213.799v9.505l-5.165 1.885V13.787l8.56-3.121c1.106-.436 2.066-.653 2.805-.578 1.621.004 2.287 1.029 2.287 3.369v6.361c0 1.682-1.273 3.77-3.193 4.788v.075c.295-.074.59-.073.811-.073 1.403.004 3.006.89 2.973 2.7 0 0-.017 4.703 0 6.298.017 1.733.612 2.167.612 2.167l-5.166 1.887zm-1.276-20.561c0-.877-.148-1.172-.665-1.173-.22 0-.516-.002-.958.144l-1.625.581v8.48l1.55-.58c1.255-.435 1.698-1.165 1.698-2.408v-5.044zm25.47 12.277V1.886L55.541 0v22.883l6.272-2.323v4.608l-11.436 4.208zm-40.635-8.37V43.67l-5.167 1.887V22.893L0 24.562V19.81l14.243-5.226v4.752l-4.501 1.67zm32.485 11.159l-4.427 1.67c-.887-1.027-5.496-25.676-5.496-25.676l5.166-1.887s2.025 16.611 2.542 17.49c.517-1.243 2.63-19.198 2.63-19.198l5.165-1.887s-4.77 28.027-5.58 29.488z" fill="#838997"/></svg>