<svg width="183" height="30" fill="none" xmlns="http://www.w3.org/2000/svg"><path fill-rule="evenodd" clip-rule="evenodd" d="M.1 16.8c0 6.8 5.469 12.4 12.33 12.4 3.877 0 7.258-1.8 9.545-4.6.895 1.1 2.486 3.3 2.784 3.9 0 0 1.79-2.7 2.784-3.9 2.287 2.8 5.668 4.6 9.546 4.6 6.761 0 12.33-5.5 12.33-12.4 0-2.7-.895-5.2-2.387-7.3.199-1.4 1.193-3.4 2.486-4.9h-8.253C37.089 1.8 31.322 0 24.759 0 18.197 0 12.032 1.8 7.856 4.6H0c1.293 1.5 2.188 3.5 2.486 4.9C.995 11.6.1 14.1.1 16.8zm46.932 0c0 5.5-4.474 10-9.943 10-5.469 0-9.943-4.5-9.943-10s4.474-10 9.943-10c5.469.1 9.943 4.5 9.943 10zM24.759 2.1c4.375 0 8.452.8 11.932 2.4-6.662.2-11.932 5.7-11.932 12.4 0-6.8-5.469-12.4-12.33-12.4 3.58-1.6 7.955-2.4 12.33-2.4zm-12.33 4.8c5.47 0 9.944 4.5 9.944 10s-4.475 10-9.944 10c-5.468 0-9.943-4.5-9.943-10 .1-5.6 4.475-10 9.943-10zm24.66 15.9c3.281 0 5.966-2.7 5.966-6s-2.685-6-5.966-6-5.966 2.7-5.966 6 2.685 6 5.966 6zm-24.759 0c3.281 0 5.966-2.7 5.966-6s-2.685-6-5.966-6-5.966 2.7-5.966 6 2.685 6 5.966 6zm0-10.2c2.287 0 4.176 1.9 4.176 4.2 0 2.3-1.889 4.2-4.176 4.2s-4.176-1.9-4.176-4.2c0-2.3 1.889-4.2 4.176-4.2zm24.759 0c2.287 0 4.176 1.9 4.176 4.2 0 2.3-1.89 4.2-4.176 4.2-2.287 0-4.176-1.9-4.176-4.2 0-2.3 1.889-4.2 4.176-4.2zm-25.057 6.2a2 2 0 100-4 2 2 0 000 4zm24.759 0a2 2 0 100-4 2 2 0 000 4zm34.96-11.859l-2.633.784v2.353h-2.014v2.197h2.014v6.745c0 2.98 1.239 4.549 3.717 4.549.93 0 1.549-.157 2.169-.314l-.155-2.04h-.155c-.31.158-.775.158-1.394.158-.62 0-1.085-.157-1.24-.628-.31-.314-.464-.941-.464-1.882v-6.745h3.408V9.922h-3.408v-2.98h.155v-.001zm11.771 2.824c-.775 0-1.55.313-2.324.784-.62.47-1.084.941-1.394 1.726l-.155-2.197h-2.323v.157c0 1.098.155 2.51.155 4.079v8.94h2.633v-7.058c0-1.255.31-2.196.93-2.98.62-.628 1.394-1.098 2.168-1.098h.929V9.45h-.155c0 .314-.31.314-.464.314v.001zm3.098.313h2.633v13.177H86.62V10.078zm1.394-5.49c-.465 0-.93.157-1.24.47-.31.315-.464.785-.464 1.256 0 .47.155.94.465 1.255.31.313.774.47 1.239.47.464 0 .93-.157 1.239-.47.31-.314.465-.785.465-1.255 0-.47-.155-.941-.465-1.255-.31-.314-.775-.47-1.24-.47l.001-.001zm10.533 5.177c-1.86 0-3.408.784-4.492 2.196l-.155-2.04h-2.478v.157c0 1.098.155 2.51.155 4.236v14.274h2.634v-6.745c.31.47.774.941 1.394 1.255.774.314 1.549.627 2.323.627 1.704 0 3.098-.627 4.182-2.039 1.085-1.255 1.704-3.137 1.704-5.176 0-1.883-.465-3.608-1.549-4.863-.774-1.255-2.168-1.882-3.717-1.882h-.001zm17.348 10.353v-4.706c0-1.726-.465-3.137-1.24-4.079-.929-.94-2.168-1.411-3.872-1.411-1.703 0-3.252.47-4.492 1.254l.62 1.883h.155c.93-.628 2.168-.941 3.408-.941.929 0 1.703.313 2.168.784.465.47.775 1.255.775 2.04v.156c-2.634 0-4.492.47-5.886 1.255-1.394.784-2.014 2.04-2.014 3.765 0 1.098.31 2.039 1.084 2.666.775.785 1.704 1.098 2.943 1.098 1.704 0 3.098-.627 4.028-1.882l.31 1.569h2.478v-.157c-.465-.941-.465-2.04-.465-3.294zm13.63-.314V3.96h-2.632v7.53c-.31-.471-.775-.785-1.395-1.099-.774-.314-1.548-.627-2.323-.627-1.704 0-3.098.627-4.182 2.039-1.084 1.255-1.704 3.137-1.704 5.176 0 1.883.465 3.608 1.549 4.863 1.084 1.255 2.478 1.882 4.027 1.882.93 0 1.859-.313 2.633-.784.62-.314 1.085-.941 1.55-1.568l.154 1.882h2.479v-.157c0-.627-.155-1.882-.155-3.294l-.001.001zm7.59-2.04c-.31-.94-3.717-7.686-3.717-7.686h-2.943l6.506 13.177 6.505-13.177h-2.943c.155 0-3.098 7.06-3.407 7.687l-.001-.001zm7.745-7.686h2.634v13.177h-2.634V10.078zm1.395-5.49c-.465 0-.93.157-1.24.47-.31.315-.464.785-.464 1.256 0 .47.155.94.464 1.255.31.313.775.47 1.24.47.464 0 .929-.157 1.239-.47.31-.314.464-.785.464-1.255 0-.47-.155-.941-.464-1.255-.31-.314-.775-.47-1.24-.47l.001-.001zm9.293 10.98c-.93-.313-1.704-.627-2.013-.94-.31-.314-.465-.628-.465-1.099 0-.47.155-.94.465-1.254.31-.314.929-.471 1.549-.471.929 0 1.858.314 2.788.784h.155l.62-2.039c-.93-.47-2.014-.784-3.409-.784-1.394 0-2.633.313-3.407 1.098-.93.784-1.24 1.725-1.24 2.823 0 1.726 1.24 2.98 3.563 3.765.93.314 1.55.627 1.859.941.31.314.465.784.465 1.255 0 .47-.155.941-.62 1.255-.465.314-1.084.47-1.704.47-1.084 0-2.168-.313-3.253-.94h-.155l-.62 2.195h.156c1.084.628 2.478.942 3.872.942 1.55 0 2.788-.314 3.718-1.098.929-.785 1.394-1.726 1.394-2.98 0-.942-.31-1.726-.775-2.354-.774-.47-1.704-1.098-2.943-1.568v-.001zm11.308-5.803c-1.86 0-3.408.627-4.647 1.882-1.24 1.255-1.859 2.98-1.859 5.177 0 2.039.62 3.607 1.704 4.862 1.239 1.255 2.633 1.883 4.492 1.883 1.084 0 2.323-.314 3.253-.942.929-.627 1.858-1.411 2.323-2.51.62-1.097.775-2.352.775-3.764 0-2.04-.62-3.608-1.704-4.863-.93-1.098-2.479-1.725-4.337-1.725zm14.56 0c-.775 0-1.55.313-2.324.784-.62.47-1.084.941-1.394 1.726l-.155-2.197h-2.168v13.176h2.633v-7.058c0-1.255.31-2.196.93-2.98.619-.628 1.394-1.098 2.168-1.098h.929V9.45h-.155c0 .314-.31.314-.464.314v.001zm-68.154 9.098c0 .784-.31 1.412-.93 1.882-.62.628-1.394.784-2.323.784-.62 0-1.084-.156-1.549-.627-.31-.314-.62-.941-.62-1.569 0-.784.31-1.568 1.085-2.039.774-.47 2.168-.784 4.182-.784v2.353h.155zm13.63-1.255c0 1.098-.31 2.04-.929 2.667-.62.627-1.394.94-2.323.94-1.085 0-2.014-.47-2.633-1.254-.62-.941-.93-2.04-.93-3.294 0-1.412.31-2.51.93-3.451.62-.941 1.548-1.255 2.633-1.255.93 0 1.704.314 2.323.941.62.627.93 1.569.93 2.51v2.196h-.001zm-26.641 2.51c-.62.784-1.55 1.255-2.634 1.255-.93 0-1.704-.314-2.323-.942-.62-.627-.93-1.568-.93-2.51v-2.039c0-.313.155-.94.31-1.568.155-.628.62-1.098 1.24-1.569a2.953 2.953 0 011.858-.627c1.084 0 1.859.47 2.633 1.255.62.784.93 1.882.93 3.294 0 1.411-.31 2.666-1.084 3.45v.001zm69.083.157c-.775.94-1.549 1.411-2.633 1.411-1.085 0-1.859-.47-2.634-1.411-.774-.942-1.084-2.04-1.084-3.451 0-1.412.31-2.51 1.084-3.451.62-.942 1.55-1.412 2.789-1.412 1.084 0 2.013.47 2.633 1.412.62.94.93 2.039.93 3.45 0 1.255-.31 2.51-1.085 3.452z" fill="#B2B2B2"/></svg>