<svg width="139" height="35" fill="none" xmlns="http://www.w3.org/2000/svg"><path fill-rule="evenodd" clip-rule="evenodd" d="M138.978 7.741l-2.904.003.01 10.867c.005 2.998-1.724 4.091-3.984 4.136-2.257-.045-3.451-1.499-3.456-4.47l-.002-10.525h-2.877l.008 10.53c.008 5.845 2.836 7.51 6.335 7.51 1.974 0 3.325-.859 3.984-1.648l-.003 2.643c-.053 1.992-.7 3.996-1.892 4.627-1.127.588-1.97.437-2.286.427v3.128s2.155.266 4.043-.807c1.821-1.05 3.047-4.232 3.041-7.584l-.017-18.837zM27.17 7.671c-2.01 0-3.384.87-4.06 1.64L23.095.456l-2.951.005.022 25.248 2.958-.008-.011-10.154c0-2.983 1.76-4.793 4.062-4.84 2.31.044 3.53 2.2 3.534 5.192l.01 9.792h2.915l-.006-9.792c-.012-5.863-2.89-8.24-6.457-8.23h-.001zm51.341 8.05c.422-3.339 2.222-5.35 4.93-5.35 3.373 0 4.702 2.573 5.016 5.35h-9.946zm5.005-8.123c-4.706.007-7.914 4.087-7.91 9.488.006 5.411 3.361 8.775 8.237 8.764 2.891 0 4.737-1.05 6.717-3.402l.126-.136-1.812-1.71-.12.128c-1.507 1.69-2.823 2.304-4.847 2.304-3.054 0-5.013-1.362-5.414-4.71l12.646-.01.025-.164c.023-.415.02-.7.023-.93-.003-5.755-2.9-9.626-7.671-9.622zM97.435 9.77V7.781h-2.961l.018 17.845h2.956l-.006-10.214c-.003-2.993 2.41-4.608 4.703-4.66.32.013.641.045.935.107V7.676a6.105 6.105 0 00-.939-.057c-2.15-.008-3.705.743-4.706 2.15zM9.154 11.735c-3.423-.87-5.63-1.486-5.63-4.496C3.522 4.73 5.58 3.2 8.669 3.195c2.162 0 4.25.93 5.51 2.59l2.172-2.013C15.454 2.092 12.566.126 8.62.132 4.052.14.618 3.227.618 7.32c.005 5.123 3.646 6.38 7.344 7.326 3.585.916 6.096 1.87 6.096 4.804.002 2.705-2.01 3.452-5.371 3.452-3.458.007-5.45-2.005-6.476-3.61L0 21.368c.762 2.135 4.386 4.603 8.725 4.603 5.033-.015 8.285-2.183 8.274-6.647.008-4.994-3.8-6.584-7.845-7.59zM119.03.355l.025 25.235 2.914-.015-.02-25.227-2.92.006h.001zm-71.91 7.49l.005 10.772c.007 3.002-1.367 4.103-3.662 4.147-2.308-.037-3.672-1.145-3.678-4.13l-.01-10.786h-2.94l.013 10.925c.006 4.888 2.479 7.13 6.615 7.122 4.137-.007 6.6-2.247 6.597-7.129l-.01-10.932-2.93.01v.001zm24.436 14.457c-1.226-.614-1.89-1.415-1.97-3.407l-.006-7.976 4.304-.004-.008-3.102-4.303.007L69.57.41h-2.954l.014 7.411h-2.122v3.11h2.124l.01 7.971c.002 3.342 1.257 5.115 3.127 6.158 1.925 1.067 4.128.794 4.128.794l-.005-3.118c-.33 0-1.193.155-2.336-.433zm-11.636.008c-1.225-.622-1.895-1.414-1.977-3.403V10.94l4.301-.01V7.824l-4.308.007-.002-7.41h-2.942l.005 7.41h-2.123l.008 3.115h2.123l.003 7.962c.009 3.354 1.26 5.118 3.121 6.166 1.925 1.075 4.132.8 4.132.8v-3.127c-.332 0-1.196.153-2.341-.436zm55.212-14.56h-4.306v-.158c.071-1.988.735-3.37 1.96-4.004 1.146-.588 2.014-.433 2.343-.433V.018s-2.22-.218-4.135.86c-1.849 1.055-3.107 3.576-3.104 6.924l-.003-.046h-2.123l.004 3.103h2.122l.014 14.742 2.942-.008-.017-14.742 4.308-.004-.005-3.095z" fill="#B2B2B2"/></svg>