<svg width="174" height="32" fill="none" xmlns="http://www.w3.org/2000/svg"><path fill-rule="evenodd" clip-rule="evenodd" d="M17.374 10.913c-3.805 0-7.105 1.365-9.022 3.647V0H0v31.909h8.352v-5.153c0-5.19 2.28-8.165 6.252-8.165 2.723 0 4.287 1.032 4.922 3.248.413 1.443.496 3.305.496 5.839v4.23h8.351V25.77c0-5.726-.543-8.44-2.161-10.767-2.005-2.751-4.895-4.09-8.838-4.09zm9.758 2.357c.482.693.875 1.412 1.195 2.205V.012h-8.352v8.914c3.033.504 5.395 1.928 7.157 4.344zM48.84 25.474h-3.026V8.304h3.026v6.943h7.665V8.303h3.025v17.17h-3.075l.05-7.524H48.84v7.525zm19.01-12.298c3.656 0 6 2.475 6 6.338 0 3.839-2.318 6.262-6 6.262-3.68 0-6-2.423-6-6.262 0-3.863 2.345-6.338 6-6.338zm14.598 12.4c-.554.126-1.285.201-2.142.201-1.16 0-2.37-.227-3.026-1.034-.48-.58-.504-1.264-.504-2.424v-6.617h-2.57v-2.248h2.57v-4.19l2.874-.633v4.823h2.798v2.248H79.65v6.136c0 .682.1 1.01.328 1.238.226.251.706.328 1.21.328.505 0 .958-.05 1.26-.1v2.272zm12.507-2.828c-.53.833-2.144 3.028-5.649 3.028-3.554 0-5.975-2.524-5.975-6.412 0-3.711 2.547-6.187 5.9-6.187 3.833 0 5.673 2.65 5.673 6.338 0 .202-.025.53-.025.732h-8.75c.203 1.642 1.211 3.055 3.329 3.055 2.168 0 3.126-1.464 3.503-2.07l1.994 1.516zm2.169 2.727h2.874V8.302h-2.874v17.173zm13.79-7.652c-.428-1.287-1.336-2.171-2.798-2.171-1.917 0-3.128 1.414-3.128 3.813s1.237 3.812 3.128 3.812c1.638 0 2.445-.958 2.874-2.045l2.319 1.238c-.554 1.287-2.193 3.307-5.27 3.307-3.479 0-5.9-2.222-5.9-6.262 0-4.04 2.598-6.338 5.9-6.338 2.8 0 4.538 1.489 5.27 3.385l-2.395 1.261zm14.75 7.652h-2.875V19.39c0-.91-.025-1.693-.201-2.297-.252-.86-.883-1.39-2.12-1.39-1.788 0-2.645 1.39-2.645 3.332v6.44h-2.875V8.304h2.875v6.69c.554-1.06 1.916-1.844 3.73-1.844 1.363 0 2.496.405 3.305 1.49.554.784.805 1.693.805 4.016v6.818l.001.001zm12.303-2.752c0 .758.102 1.009.782 1.009h.15v1.895c-.15.023-.53.126-1.36.126-1.11 0-1.89-.305-2.119-1.238h-.024c-.48.555-1.437 1.288-3.58 1.288-2.32 0-4.235-1.162-4.235-3.788 0-.91.252-1.59.68-2.12.73-.885 1.992-1.364 3.556-1.642l2.647-.454c.63-.127.756-.179.756-.632v-.202c0-1.01-.656-1.514-2.144-1.514-1.613 0-2.445.68-2.421 2.094l-2.698-.176c-.048-2.955 2.372-4.14 5.246-4.14 2.75 0 4.764.882 4.764 3.533v5.961zm13.036-7.703c.73-.882 1.941-1.868 4.11-1.868 1.538 0 2.546.455 3.176 1.162.756.857 1.057 1.69 1.057 4.343v6.818h-2.872v-6.089c0-2.17-.152-3.685-2.32-3.685-1.79 0-2.597 1.39-2.597 3.333v6.439h-2.873v-6.087c0-2.17-.151-3.685-2.32-3.685-1.765 0-2.596 1.39-2.596 3.333v6.439h-2.875v-12.02h2.875v1.539c.58-1.008 1.865-1.842 3.756-1.842 1.235 0 2.268.378 2.975 1.162.2.226.353.454.504.706v.002zm14.044 9.192v6.06h-2.874V13.454h2.874v1.313c.655-.86 1.967-1.616 3.53-1.616 3.252 0 5.32 2.627 5.32 6.363 0 3.611-2.118 6.262-5.32 6.262-1.613 0-2.773-.63-3.53-1.565v.001zm-97.197-.909c1.841 0 3.152-1.466 3.152-3.838 0-2.424-1.26-3.839-3.152-3.839-1.89 0-3.151 1.44-3.151 3.839s1.31 3.838 3.151 3.838zm18.356-5.202h5.848c-.075-1.565-1.21-2.627-2.824-2.627-1.639 0-2.948 1.189-3.024 2.627zm49.014 3.105v-1.463c-.43.152-.782.253-1.64.428l-1.107.228c-1.363.278-1.968.631-1.968 1.59 0 .985.654 1.644 2.068 1.644 1.561 0 2.647-.785 2.647-2.427zm32.75 2.071c1.842 0 3.05-1.44 3.05-3.812 0-2.424-1.208-3.839-3.05-3.839-1.815 0-3.05 1.515-3.05 3.839 0 2.323 1.235 3.812 3.05 3.812z" fill="#B2B2B2"/></svg>